<?xml version="1.0" encoding="utf-8" standalone="yes"?>
<!DOCTYPE svg PUBLIC "-//W3C//DTD SVG 1.1//EN" "http://www.w3.org/Graphics/SVG/1.1/DTD/svg11.dtd">
<svg width="1032" height="1055" viewBox="0 0 1032 1055" style="fill:none;stroke:none;fill-rule:evenodd;clip-rule:evenodd;stroke-linecap:round;stroke-linejoin:round;stroke-miterlimit:1.5;" version="1.1" xmlns="http://www.w3.org/2000/svg" xmlns:xlink="http://www.w3.org/1999/xlink"><style class="text-font-style fontImports" data-font-family="Shantell Sans">@import url(https://fonts.googleapis.com/css2?family=Shantell+Sans:wght@300..800&amp;amp;display=block);</style><style id="anim">#items g[id*="dashed-stroke"] path{animation:dash 12s linear infinite}@keyframes dash{from{stroke-dashoffset:0}to{stroke-dashoffset:-300}}@media (prefers-reduced-motion:reduce){#items *{animation:none!important}}</style><rect id="" x="0" y="0" width="1032" height="1055" style="fill: #ffffff;"></rect><g id="items" style="isolation: isolate"><g id="blend" style="mix-blend-mode: normal"><g id="g-root-tf_1lymrwt18q4w06-fill" data-item-order="-1633140"><g id="tf_1lymrwt18q4w06-fill" stroke="none" fill="#ffffff"><g><path d="M0 0h1032 v1055 h -1032 Z"></path></g></g></g><g id="g-root-cp_5_fill-5_zko4i518qepzj-fill" data-item-order="-943644" transform="translate(746, 170.010009765625)"><g id="cp_5_fill-5_zko4i518qepzj-fill" stroke="none" fill="#fff8b6"><g><path d="M 58 106C 84.51 106 106 84.51 106 58C 106 31.49 84.51 10 58 10C 31.49 10 10 31.49 10 58C 10 84.51 31.49 106 58 106Z"></path></g></g></g><g id="g-root-cp_5_right-5_v4umdp18qeqrs-fill" data-item-order="-943639" transform="translate(602, 134)"></g><g id="g-root-cp_5_dashed-stroke-5_hu0l3h18qep6x-fill" data-item-order="-943635" transform="translate(734, 158.010009765625)"></g><g id="g-root-cp_5_left-5_4ik2q518qeqru-fill" data-item-order="-943632" transform="translate(277.99200439453125, 157)"><g id="cp_5_left-5_4ik2q518qeqru-fill" stroke="none" fill="#fff8b6"><g><path d="M 10 78.4C 10 107.45 33.55 131 62.6 131L 281.41 131C 310.46 131 334.01 107.4501 334.01 78.4001L 334.01 77L 10.01 77L 10.01 78.4L 10 78.4ZM 10.01002 77L 334.01001 77L 334.01001 64L 10.01002 64L 10.01002 77ZM 334.01 64L 334.01 62.6C 334.01 33.55 310.46 10 281.41 10L 62.6 10C 33.55 10 10 33.55 10 62.6L 10 64L 334.01 64Z"></path></g></g></g><g id="g-root-cp_4_fill-4_1q8u3f118qeozv-fill" data-item-order="-943598" transform="translate(575, 341.010009765625)"><g id="cp_4_fill-4_1q8u3f118qeozv-fill" stroke="none" fill="#d1f4ff"><g><path d="M 58 106C 84.51 106 106 84.51 106 58C 106 31.49 84.51 10 58 10C 31.49 10 10 31.49 10 58C 10 84.51 31.49 106 58 106Z"></path></g></g></g><g id="g-root-cp_4_right-4_1lt0lal18qeps4-fill" data-item-order="-943593" transform="translate(431, 305)"></g><g id="g-root-cp_4_dashed-stroke-4_1cxdl1p18qeqkt-fill" data-item-order="-943589" transform="translate(563, 329.010009765625)"></g><g id="g-root-cp_4_left-4_zmjjrh18qeozy-fill" data-item-order="-943586" transform="translate(106.99200439453125, 328)"><g id="cp_4_left-4_zmjjrh18qeozy-fill" stroke="none" fill="#d1f4ff"><g><path d="M 10 78.4C 10 107.45 33.55 131 62.6 131L 281.41 131C 310.46 131 334.01 107.4501 334.01 78.4001L 334.01 77L 10.01 77L 10.01 78.4L 10 78.4ZM 10.01002 77L 334.01001 77L 334.01001 64L 10.01002 64L 10.01002 77ZM 334.01 64L 334.01 62.6C 334.01 33.55 310.46 10 281.41 10L 62.6 10C 33.55 10 10 33.55 10 62.6L 10 64L 334.01 64Z"></path></g></g></g><g id="g-root-cp_3_fill-3_mb31e518qeqkv-fill" data-item-order="-943554" transform="translate(410, 507)"><g id="cp_3_fill-3_mb31e518qeqkv-fill" stroke="none" fill="#e9ffb9"><g><path d="M 58 105C 84.51 105 106 83.7339 106 57.5C 106 31.2662 84.51 10 58 10C 31.49 10 10 31.2661 10 57.5C 10 83.7339 31.49 105 58 105Z"></path></g></g></g><g id="g-root-cp_3_dashed-stroke-3_dg2i8d18qeozk-fill" data-item-order="-943549" transform="translate(398, 495)"></g><g id="g-root-cp_3_stroke-3_4kfhzh18qeps9-fill" data-item-order="-943545" transform="translate(374, 471)"></g><g id="g-root-cp_3_right-3_4lzv118qeqki-fill" data-item-order="-943542" transform="translate(649.99560546875, 495)"><g id="cp_3_right-3_4lzv118qeqki-fill" stroke="none" fill="#e9ffb9"><g><path d="M 334.014395 62.6C 334.014395 33.55 310.464395 10 281.414395 10L 62.604395 10C 33.554395 10 10.004395 33.55 10.004395 62.6L 10.004395 64L 334.004395 64L 334.004395 62.6L 334.014395 62.6ZM 334.004395 64L 10.004395 64L 10.004395 77L 334.004395 77L 334.004395 64ZM 10.000016 77L 10.000016 78.3767C 10.000016 106.9425 33.549616 130.1 62.599116 130.1L 281.405316 130.1C 310.454716 130.1 334.004416 106.9425 334.004416 78.3767L 334.004416 77L 10.000016 77Z"></path></g></g></g><g id="g-root-cp_2_fill-2_1lu9jgt18qeryb-fill" data-item-order="-943512" transform="translate(242, 675)"><g id="cp_2_fill-2_1lu9jgt18qeryb-fill" stroke="none" fill="#c8ffe5"><g><path d="M 58 105C 84.51 105 106 83.7339 106 57.5C 106 31.2662 84.51 10 58 10C 31.49 10 10 31.2661 10 57.5C 10 83.7339 31.49 105 58 105Z"></path></g></g></g><g id="g-root-cp_2_dashed-stroke-2_1cz90b118qepl8-fill" data-item-order="-943507" transform="translate(230, 663)"></g><g id="g-root-cp_2_stroke-2_18jfi6l18qeqdh-fill" data-item-order="-943503" transform="translate(206, 633)"></g><g id="g-root-cp_2_right-2_znshxp18qer66-fill" data-item-order="-943500" transform="translate(481.99560546875, 663)"><g id="cp_2_right-2_znshxp18qer66-fill" stroke="none" fill="#c8ffe5"><g><path d="M 334.014395 62.6C 334.014395 33.55 310.464395 10 281.414395 10L 62.604395 10C 33.554395 10 10.004395 33.55 10.004395 62.6L 10.004395 64L 334.004395 64L 334.004395 62.6L 334.014395 62.6ZM 334.004395 64L 10.004395 64L 10.004395 77L 334.004395 77L 334.004395 64ZM 10.000016 77L 10.000016 78.3767C 10.000016 106.9425 33.549616 130.1 62.599116 130.1L 281.405316 130.1C 310.454716 130.1 334.004416 106.9425 334.004416 78.3767L 334.004416 77L 10.000016 77Z"></path></g></g></g><g id="g-root-cp_1_fill-1_mcygnh18qeplb-fill" data-item-order="-943468" transform="translate(74, 842)"><g id="cp_1_fill-1_mcygnh18qeplb-fill" stroke="none" fill="#dce9ff"><g><path d="M 58 105C 84.51 105 106 83.7339 106 57.5C 106 31.2662 84.51 10 58 10C 31.49 10 10 31.2661 10 57.5C 10 83.7339 31.49 105 58 105Z"></path></g></g></g><g id="g-root-cp_1_dashed-stroke-1_hx4yj118qeqdk-fill" data-item-order="-943463" transform="translate(62, 830)"></g><g id="g-root-cp_1_stroke-1_dhbgel18qer5t-fill" data-item-order="-943459" transform="translate(38, 800)"></g><g id="g-root-cp_1_right-1_4log5p18qeryi-fill" data-item-order="-943456" transform="translate(313.99560546875, 830)"><g id="cp_1_right-1_4log5p18qeryi-fill" stroke="none" fill="#dce9ff"><g><path d="M 334.014395 62.6C 334.014395 33.55 310.464395 10 281.414395 10L 62.604395 10C 33.554395 10 10.004395 33.55 10.004395 62.6L 10.004395 64L 334.004395 64L 334.004395 62.6L 334.014395 62.6ZM 334.004395 64L 10.004395 64L 10.004395 77L 334.004395 77L 334.004395 64ZM 10.000016 77L 10.000016 78.3767C 10.000016 106.9425 33.549616 130.1 62.599116 130.1L 281.405316 130.1C 310.454716 130.1 334.004416 106.9425 334.004416 78.3767L 334.004416 77L 10.000016 77Z"></path></g></g></g><g id="g-root-ic_woma_13z8urx18qixon-fill" data-item-order="-3600" transform="translate(326, 860)"><g id="ic_woma_13z8urx18qixon-fill" stroke="none" fill="#4e88e7"><g><path d="M 64.450005 40.274998C 64.016495 40.069435 63.742897 39.629723 63.75 39.150002L 63.75 38C 63.744179 36.664753 63.103794 35.411835 62.024998 34.625C 60.872849 33.781475 59.390148 33.531269 58.024998 33.950001L 55.524998 34.775002C 55.338078 34.877277 55.111923 34.877277 54.924999 34.775002C 54.753952 34.636349 54.66848 34.417919 54.699997 34.200001L 56.275002 23.35C 56.47472 20.220163 55.412235 17.14077 53.325001 14.8C 50.524998 11.575 46.049999 10 40 10C 33.950001 10 29.475 11.575 26.65 14.7C 24.562763 17.040771 23.500282 20.120163 23.700001 23.25L 25.275 34.100002C 25.295294 34.327518 25.189854 34.547989 25 34.674999C 24.813076 34.777275 24.586924 34.777275 24.400002 34.674999L 21.900002 33.849998C 20.550789 33.435894 19.085131 33.686352 17.949999 34.524998C 16.851851 35.337875 16.217722 36.634106 16.25 38L 16.25 39.150002C 16.257105 39.629723 15.983505 40.069435 15.55 40.274998C 12.163742 41.872669 10.003332 45.280766 10.003332 49.024998C 10.003332 52.769234 12.163742 56.17733 15.55 57.775002C 15.975164 57.989799 16.245138 58.423683 16.25 58.899998L 16.25 60.324997C 16.261589 62.281761 17.600271 63.980862 19.5 64.449997L 39.5 69.924995C 39.825794 70.025261 40.174206 70.025261 40.5 69.924995L 60.5 64.450005C 62.409649 63.990608 63.760563 62.289078 63.775002 60.324997L 63.775002 58.899998C 63.779861 58.423683 64.049835 57.989799 64.474998 57.775002C 67.861259 56.17733 70.021667 52.769234 70.021667 49.024998C 70.021667 45.280766 67.861259 41.872669 64.474998 40.274998ZM 22.5 52.775002C 22.5 53.465355 21.940357 54.025002 21.25 54.025002C 18.5 54.025002 15 52.775002 15 49.024998C 15 45.274998 18.5 44.024998 21.25 44.024998C 21.940357 44.024998 22.5 44.584644 22.5 45.274998ZM 50.700001 35.650002C 50.6474 36.122894 50.325729 36.522552 49.875 36.674999L 40.775002 39.674999C 40.273201 39.850292 39.726799 39.850292 39.224998 39.674999L 30.125 36.674999C 29.674274 36.522552 29.3526 36.122894 29.300001 35.650002L 28.125 27.675001C 28.06666 27.30566 28.176725 26.9296 28.424999 26.65C 28.674524 26.375782 29.029264 26.221151 29.399998 26.224998C 34.775002 26.224998 37.550003 25.299999 39.200001 23.925001C 39.666962 23.548716 40.333038 23.548716 40.799999 23.924999C 42.449997 25.299999 45.224998 26.425001 50.599998 26.224998C 50.97073 26.221151 51.32547 26.375782 51.574997 26.649998C 51.811642 26.935905 51.920147 27.306622 51.875 27.675001ZM 58.75 54.025002C 58.059647 54.025002 57.5 53.465355 57.5 52.775002L 57.5 45.274998C 57.5 44.584644 58.059647 44.024998 58.75 44.024998C 61.5 44.024998 65 45.274998 65 49.024998C 65 52.775002 61.5 54.025002 58.75 54.025002ZM 32.5 30.625C 32.5 32.005714 33.619286 33.125 35 33.125C 36.380714 33.125 37.5 32.005714 37.5 30.625C 37.5 29.244287 36.380714 28.125 35 28.125C 33.619286 28.125 32.5 29.244287 32.5 30.625M 42.5 30.625C 42.5 32.005714 43.619286 33.125 45 33.125C 46.380714 33.125 47.5 32.005714 47.5 30.625C 47.5 29.244287 46.380714 28.125 45 28.125C 43.619286 28.125 42.5 29.244287 42.5 30.625"></path></g></g></g><g id="g-root-ic_8_1lxe02518qerda-fill" data-item-order="-3600" transform="translate(359, 359)"><g id="ic_8_1lxe02518qerda-fill" stroke="none" fill="#1eabda"><g><path d="M 15 12.5C 15 11.119288 13.880712 10 12.5 10C 11.119288 10 10 11.119288 10 12.5L 10 67.5C 10 68.880707 11.119288 70 12.5 70L 67.5 70C 68.880707 70 70 68.880707 70 67.5C 70 66.119293 68.880707 65 67.5 65L 15 65L 15 12.5ZM 21.334999 15.085C 21.812771 14.618574 22.457413 14.362877 23.125 14.375L 44.375 14.375C 45.042538 14.363157 45.687073 14.618813 46.165001 15.085C 46.631187 15.562925 46.886841 16.207464 46.875 16.875L 55.625 16.875C 56.567501 16.875 57.550003 17.200001 58.299999 17.950001C 59.050003 18.700001 59.375 19.682499 59.375 20.625L 59.375 30.625L 66.875 30.625C 67.542534 30.613157 68.187073 30.868813 68.665001 31.335001C 69.131187 31.812925 69.386841 32.457462 69.375 33.125L 69.375 38.125C 69.386841 38.792538 69.131187 39.437073 68.665001 39.915001C 68.187073 40.381187 67.542534 40.636841 66.875 40.625L 45.625 40.625C 44.957462 40.636841 44.312927 40.381187 43.834999 39.915001C 43.368813 39.437073 43.113159 38.792538 43.125 38.125L 43.125 33.125C 43.113159 32.457462 43.368813 31.812925 43.834999 31.335001C 44.312927 30.868813 44.957462 30.613157 45.625 30.625L 54.375 30.625L 54.375 21.875L 46.875 21.875C 46.886841 22.542536 46.631187 23.187075 46.165001 23.665001C 45.687073 24.131187 45.042538 24.386843 44.375 24.375L 23.125 24.375C 22.457413 24.387123 21.812771 24.131428 21.334999 23.665001C 20.868574 23.187229 20.612877 22.542587 20.625 21.875L 20.625 16.875C 20.625 16.215 20.85 15.57 21.334999 15.085ZM 18.834999 45.084999C 19.312925 44.618813 19.957464 44.363159 20.625 44.375L 41.875 44.375C 42.542538 44.363159 43.187073 44.618813 43.665001 45.084999C 44.131187 45.562927 44.386841 46.207462 44.375 46.875L 44.375 51.875C 44.386841 52.542534 44.131187 53.187073 43.665001 53.665001C 43.187073 54.131187 42.542538 54.386845 41.875 54.375L 20.625 54.375C 19.957464 54.386845 19.312925 54.131187 18.834999 53.665001C 18.368813 53.187073 18.113157 52.542534 18.125 51.875L 18.125 46.875C 18.113157 46.207462 18.368813 45.562927 18.834999 45.084999ZM 54.375 51.875C 53.707466 51.863155 53.062927 52.118813 52.584999 52.584999C 52.118813 53.062927 51.863155 53.707466 51.875 54.375L 51.875 59.375C 51.863155 60.042534 52.118813 60.687073 52.584999 61.165001C 53.062927 61.631187 53.707466 61.886845 54.375 61.875L 66.875 61.875C 67.542534 61.886845 68.187073 61.631187 68.665001 61.165001C 69.131187 60.687073 69.386841 60.042534 69.375 59.375L 69.375 54.375C 69.386841 53.707466 69.131187 53.062927 68.665001 52.584999C 68.187073 52.118813 67.542534 51.863155 66.875 51.875L 54.375 51.875Z"></path></g></g></g><g id="g-root-ic_chec_1qdtw3x18qep6v-fill" data-item-order="-3600" transform="translate(530, 188)"><g id="ic_chec_1qdtw3x18qep6v-fill" stroke="none" fill="#e0cb15"><g><path d="M 63.75 10L 16.25 10C 12.798221 10 10 12.798221 10 16.25L 10 63.75C 10 67.201782 12.798221 70 16.25 70L 63.75 70C 67.201782 70 70 67.201782 70 63.75L 70 16.25C 70 12.798221 67.201782 10 63.75 10ZM 56.25 33.75L 45 33.75C 43.619286 33.75 42.5 32.630714 42.5 31.25C 42.5 29.869287 43.619286 28.75 45 28.75L 56.25 28.75C 57.630711 28.75 58.75 29.869287 58.75 31.25C 58.75 32.630714 57.630711 33.75 56.25 33.75ZM 58.75 53.75C 58.75 55.130711 57.630711 56.25 56.25 56.25L 45 56.25C 43.619286 56.25 42.5 55.130711 42.5 53.75C 42.5 52.369289 43.619286 51.25 45 51.25L 56.25 51.25C 57.630711 51.25 58.75 52.369289 58.75 53.75ZM 38.25 24L 30.75 34C 30.315903 34.582714 29.649752 34.947731 28.925001 35C 28.200539 35.053108 27.488802 34.788486 26.975 34.275002L 23.225 30.525C 22.244696 29.544695 22.244696 27.955305 23.225 26.975C 24.205305 25.994696 25.794695 25.994696 26.775 26.975L 28.475 28.700001L 34.25 21C 35.078426 19.895432 36.645432 19.671574 37.75 20.5C 38.854568 21.328426 39.078426 22.89543 38.25 24ZM 38.25 49L 30.75 59C 30.316334 59.583229 29.650324 59.948868 28.925453 60.001675C 28.200583 60.054478 27.488615 59.789223 26.975 59.274998L 23.225 55.524998C 22.244696 54.544697 22.244696 52.955307 23.225 51.975002C 24.205305 50.994698 25.794695 50.994698 26.775 51.975002L 28.475 53.699997L 34.25 46C 35.078426 44.895432 36.645432 44.671574 37.75 45.5C 38.854568 46.328426 39.078426 47.895432 38.25 49Z"></path></g></g></g><g id="g-root-ic_1_94mi1918q94w4-fill" data-item-order="-3600" transform="translate(494, 693)"><g id="ic_1_94mi1918q94w4-fill" stroke="none" fill="#3cc583"><g><path d="M 10 48.849998L 10 66.975006C 10 68.355713 11.119288 69.475006 12.5 69.475006C 13.880712 69.475006 15 68.355713 15 66.975006L 15 48.849998C 15 47.469288 13.880712 46.349998 12.5 46.349998C 11.119288 46.349998 10 47.469288 10 48.849998ZM 17.5 49.474998L 17.5 65.725006C 17.5 66.415359 18.059645 66.975006 18.75 66.975006L 45.650002 66.975006C 47.132908 66.981651 48.557362 66.397217 49.608292 65.350983C 50.659218 64.304749 51.250015 62.882923 51.25 61.399998L 51.25 60.725002C 51.25 59.344288 50.130711 58.225002 48.75 58.225002L 25.950001 58.225002C 25.344584 58.301735 24.749325 58.021828 24.422262 57.506607C 24.095196 56.99139 24.095196 56.333611 24.422262 55.81839C 24.749325 55.303177 25.344584 55.02327 25.950001 55.100002L 32.25 55.100002C 33.088108 55.099316 33.870117 54.678711 34.332691 53.97982C 34.795269 53.28093 34.876865 52.396744 34.549999 51.625C 33.674313 49.558262 31.644588 48.21825 29.4 48.224998L 18.75 48.224998C 18.059645 48.224998 17.5 48.784645 17.5 49.474998ZM 54.675003 37.099998C 55.253632 37.692528 56.04681 38.0266 56.875 38.0266C 57.703194 38.0266 58.496368 37.692528 59.075005 37.099998L 69.074997 27.1C 69.662766 26.513723 69.993088 25.71767 69.993088 24.887501C 69.993088 24.057329 69.662766 23.261276 69.075005 22.675001L 59.074997 12.675C 57.835777 11.573389 55.951927 11.631384 54.782814 12.807137C 53.613705 13.98289 53.566383 15.867042 54.675003 17.1L 61.574997 24C 62.054459 24.494534 62.054459 25.280466 61.574997 25.775L 54.675003 32.674999C 54.087238 33.261276 53.756912 34.057331 53.756912 34.887501C 53.756912 35.71767 54.087238 36.513725 54.675003 37.099998ZM 36.575001 12.675C 35.351372 11.48092 33.398628 11.48092 32.174999 12.675L 22.174999 22.675001C 21.58724 23.261276 21.256914 24.057329 21.256914 24.887501C 21.256914 25.71767 21.58724 26.513723 22.174999 27.1L 32.174999 37.099998C 32.753632 37.692528 33.546806 38.0266 34.375 38.0266C 35.203194 38.0266 35.996368 37.692528 36.575001 37.099998C 37.162762 36.513725 37.493088 35.71767 37.493088 34.887501C 37.493088 34.057331 37.162762 33.261276 36.575001 32.674999L 29.674999 25.775C 29.195541 25.280466 29.195541 24.494534 29.674999 24L 36.575001 17.1C 37.162762 16.513723 37.493088 15.71767 37.493088 14.8875C 37.493088 14.057329 37.162762 13.261277 36.575001 12.675ZM 10 10M 46.174999 36.824997L 51.174999 14.325C 51.548203 12.619647 50.468071 10.934702 48.762642 10.561854C 47.057209 10.189007 45.37249 11.269491 45 12.974999L 40 35.474998C 39.723618 36.578011 40.068192 37.744095 40.899708 38.519722C 41.731224 39.295353 42.918427 39.558094 43.999573 39.205757C 45.080719 38.853424 45.885155 37.941628 46.100002 36.825001Z"></path></g></g></g><g id="g-root-ic_9_hwiklp18qlrez-fill" data-item-order="-3600" transform="translate(662, 525)"><g id="ic_9_hwiklp18qlrez-fill" stroke="none" fill="#92bd39"><g><path d="M 13.75 16.25C 13.082414 16.237877 12.437771 16.493574 11.96 16.959999C 11.493574 17.437771 11.237877 18.082415 11.25 18.75L 11.25 26.25C 11.25 26.91 11.475 27.555 11.96 28.040001C 12.437771 28.506428 13.082414 28.762123 13.75 28.75L 41.25 28.75C 42.067497 28.75 42.700001 28.3375 43.0975 27.885C 43.4725 27.4575 43.75 26.862499 43.75 26.25L 43.75 25L 48.75 25L 48.75 38.75L 46.25 38.75C 45.743729 38.749092 45.286903 39.053658 45.093037 39.521339C 44.899174 39.989025 45.006557 40.527466 45.364998 40.885002L 50.364998 45.885002C 50.59951 46.120106 50.917931 46.252235 51.25 46.252235C 51.582069 46.252235 51.90049 46.120106 52.135002 45.885002L 57.135002 40.885002C 57.493443 40.527466 57.600826 39.989025 57.40696 39.521339C 57.213097 39.053658 56.756271 38.749092 56.25 38.75L 53.75 38.75L 53.75 23.75C 53.762421 22.750713 53.375458 21.787804 52.674999 21.075001C 51.9622 20.374542 50.99929 19.987579 50 20L 43.75 20L 43.75 18.75C 43.761841 18.082464 43.506187 17.437925 43.040001 16.959999C 42.562073 16.493813 41.917538 16.238157 41.25 16.25L 13.75 16.25ZM 26.959999 51.959999C 27.437925 51.493813 28.082464 51.238155 28.75 51.25L 66.25 51.25C 66.917534 51.238155 67.562073 51.493813 68.040001 51.959999C 68.506187 52.437927 68.761841 53.082466 68.75 53.75L 68.75 61.25C 68.75 61.862503 68.472504 62.4575 68.097504 62.884998C 67.636284 63.427658 66.962143 63.74329 66.25 63.75L 28.75 63.75C 28.082464 63.761845 27.437925 63.506187 26.959999 63.040001C 26.493813 62.562073 26.238157 61.917534 26.25 61.25L 26.25 53.75C 26.238157 53.082466 26.493813 52.437927 26.959999 51.959999Z"></path></g></g></g><g id="g-root-tx_mermaid_142zm4t18qls76-fill" data-item-order="0" transform="translate(734, 555)"><g id="tx_mermaid_142zm4t18qls76-fill" stroke="none" fill="#484848"><g><text style="font: 15px &quot;Shantell Sans&quot;, cursive; white-space: pre;" font-size="15px" font-family="'Shantell Sans', cursive"><tspan x="12" y="29" dominant-baseline="ideographic">使用 Mermaid 创建基本的流</tspan><tspan x="12" y="47" dominant-baseline="ideographic">程图。</tspan></text></g></g></g><g id="g-root-tx_3_4jt42518qlqtq-fill" data-item-order="0" transform="translate(446, 537)"><g id="tx_3_4jt42518qlqtq-fill" stroke="none" fill="#484848"><g><text style="font: 25px &quot;Shantell Sans&quot;, cursive; white-space: pre;" font-size="25px" font-family="'Shantell Sans', cursive"><tspan x="13.25" y="45" dominant-baseline="ideographic">3</tspan></text></g></g></g><g id="g-root-tx__1ur5l1p18qerk9-fill" data-item-order="0" transform="translate(215, 353)"><g id="tx__1ur5l1p18qerk9-fill" stroke="none" fill="#484848"><g><text style="font: 20px &quot;Shantell Sans&quot;, cursive; white-space: pre;" font-size="20px" font-family="'Shantell Sans', cursive"><tspan x="20" y="35" dominant-baseline="ideographic">探索其他图表</tspan></text></g></g></g><g id="g-root-tx__1heg4i518qlqm8-fill" data-item-order="0" transform="translate(734, 519)"><g id="tx__1heg4i518qlqm8-fill" stroke="none" fill="#484848"><g><text style="font: 20px &quot;Shantell Sans&quot;, cursive; white-space: pre;" font-size="20px" font-family="'Shantell Sans', cursive"><tspan x="12" y="35" dominant-baseline="ideographic">创建流程图</tspan></text></g></g></g><g id="g-root-tx_markdown_1hhkl3h18q95op-fill" data-item-order="0" transform="translate(566, 687)"><g id="tx_markdown_1hhkl3h18q95op-fill" stroke="none" fill="#484848"><g><text style="font: 20px &quot;Shantell Sans&quot;, cursive; white-space: pre;" font-size="20px" font-family="'Shantell Sans', cursive"><tspan x="12" y="35" dominant-baseline="ideographic">嵌入 Markdown</tspan></text></g></g></g><g id="g-root-tx_2_me7l5918q94au-fill" data-item-order="0" transform="translate(278, 705)"><g id="tx_2_me7l5918q94au-fill" stroke="none" fill="#484848"><g><text style="font: 25px &quot;Shantell Sans&quot;, cursive; white-space: pre;" font-size="25px" font-family="'Shantell Sans', cursive"><tspan x="13.25" y="45" dominant-baseline="ideographic">2</tspan></text></g></g></g><g id="g-root-tx_markdown_qva1fx18q95or-fill" data-item-order="0" transform="translate(566, 723)"><g id="tx_markdown_qva1fx18q95or-fill" stroke="none" fill="#484848"><g><text style="font: 15px &quot;Shantell Sans&quot;, cursive; white-space: pre;" font-size="15px" font-family="'Shantell Sans', cursive"><tspan x="12" y="29" dominant-baseline="ideographic">学习如何在 Markdown 文档</tspan><tspan x="12" y="47" dominant-baseline="ideographic">中嵌入 Mermaid 代码。</tspan></text></g></g></g><g id="g-root-tx_mermaid_1qbygul18qeq6j-fill" data-item-order="0" transform="translate(386, 38)"><g id="tx_mermaid_1qbygul18qeq6j-fill" stroke="none" fill="#484848"><g><text style="font: bold 25px &quot;Shantell Sans&quot;, cursive; white-space: pre;" font-weight="bold" font-size="25px" font-family="'Shantell Sans', cursive"><tspan x="12.27" y="45" dominant-baseline="ideographic">掌握 Mermaid 图表</tspan></text></g></g></g><g id="g-root-tx_mermaid_958z4d18qhkw4-fill" data-item-order="0" transform="translate(398, 890)"><g id="tx_mermaid_958z4d18qhkw4-fill" stroke="none" fill="#484848"><g><text style="font: 15px &quot;Shantell Sans&quot;, cursive; white-space: pre;" font-size="15px" font-family="'Shantell Sans', cursive"><tspan x="12" y="29" dominant-baseline="ideographic">学习 Mermaid 语法及其功</tspan><tspan x="12" y="47" dominant-baseline="ideographic">能。</tspan></text></g></g></g><g id="g-root-tx__18laxfx18qepdw-fill" data-item-order="0" transform="translate(434, 182)"><g id="tx__18laxfx18qepdw-fill" stroke="none" fill="#484848"><g><text style="font: 20px &quot;Shantell Sans&quot;, cursive; white-space: pre;" font-size="20px" font-family="'Shantell Sans', cursive"><tspan x="12" y="35" dominant-baseline="ideographic">最佳实践</tspan></text></g></g></g><g id="g-root-tx_mermaid_1d0i1n118qeqrm-fill" data-item-order="0" transform="translate(143, 389)"><g id="tx_mermaid_1d0i1n118qeqrm-fill" stroke="none" fill="#484848"><g><text style="font: 15px &quot;Shantell Sans&quot;, cursive; white-space: pre;" font-size="15px" font-family="'Shantell Sans', cursive"><tspan x="16.92" y="29" dominant-baseline="ideographic">发现并使用其他 Mermaid 图</tspan><tspan x="152" y="47" dominant-baseline="ideographic">表类型。</tspan></text></g></g></g><g id="g-root-tx_1_zrjirx18qhkw2-fill" data-item-order="0" transform="translate(110, 872)"><g id="tx_1_zrjirx18qhkw2-fill" stroke="none" fill="#484848"><g><text style="font: 25px &quot;Shantell Sans&quot;, cursive; white-space: pre;" font-size="25px" font-family="'Shantell Sans', cursive"><tspan x="16.78" y="45" dominant-baseline="ideographic">1</tspan></text></g></g></g><g id="g-root-tx_mermaid_me7etp18qerrh-fill" data-item-order="0" transform="translate(338, 218)"><g id="tx_mermaid_me7etp18qerrh-fill" stroke="none" fill="#484848"><g><text style="font: 15px &quot;Shantell Sans&quot;, cursive; white-space: pre;" font-size="15px" font-family="'Shantell Sans', cursive"><tspan x="23" y="29" dominant-baseline="ideographic">实施最佳实践以有效使用 </tspan><tspan x="108.16" y="47" dominant-baseline="ideographic">Mermaid。</tspan></text></g></g></g><g id="g-root-tx_mermaid_mgphhp18qhjb7-fill" data-item-order="0" transform="translate(398, 854)"><g id="tx_mermaid_mgphhp18qhjb7-fill" stroke="none" fill="#484848"><g><text style="font: 20px &quot;Shantell Sans&quot;, cursive; white-space: pre;" font-size="20px" font-family="'Shantell Sans', cursive"><tspan x="12" y="35" dominant-baseline="ideographic">理解 Mermaid</tspan></text></g></g></g><g id="g-root-tx_5_93ddjh18qeq6m-fill" data-item-order="0" transform="translate(782, 200)"><g id="tx_5_93ddjh18qeq6m-fill" stroke="none" fill="#484848"><g><text style="font: 25px &quot;Shantell Sans&quot;, cursive; white-space: pre;" font-size="25px" font-family="'Shantell Sans', cursive"><tspan x="14.34" y="45" dominant-baseline="ideographic">5</tspan></text></g></g></g><g id="g-root-tx_4_me7hzh18qeqro-fill" data-item-order="0" transform="translate(611, 371)"><g id="tx_4_me7hzh18qeqro-fill" stroke="none" fill="#484848"><g><text style="font: 25px &quot;Shantell Sans&quot;, cursive; white-space: pre;" font-size="25px" font-family="'Shantell Sans', cursive"><tspan x="13.25" y="45" dominant-baseline="ideographic">4</tspan></text></g></g></g><g id="g-root-tf_1lymrwt18q4w06-stroke" data-item-order="-1633140"></g><g id="g-root-cp_5_fill-5_zko4i518qepzj-stroke" data-item-order="-943644" transform="translate(746, 170.010009765625)"></g><g id="g-root-cp_5_right-5_v4umdp18qeqrs-stroke" data-item-order="-943639" transform="translate(602, 134)"><g id="cp_5_right-5_v4umdp18qeqrs-stroke" fill="none" stroke-linecap="round" stroke-linejoin="round" stroke-miterlimit="4" stroke="#484848" stroke-width="2"><g><path d="M 286 92.01C 286 92.34 286 94.68 286 95.01C 285.46 140.94 248.06 178.01 202.01 178.01C 178.81 178.01 157.81 168.61 142.61 153.41L 112 184.01M 10 94.01L 118 94.01C 118 93.68 118 92.34 118 92.01M 285.99 92C 285.99 46.16 248.38 10 201.99 10C 155.6 10 118.53 46.63 118 92.01M 202 142.01C 228.51 142.01 250 120.52 250 94.01C 250 67.5 228.51 46.01 202 46.01C 175.49 46.01 154 67.5 154 94.01C 154 120.52 175.49 142.01 202 142.01Z"></path></g></g></g><g id="g-root-cp_5_dashed-stroke-5_hu0l3h18qep6x-stroke" data-item-order="-943635" transform="translate(734, 158.010009765625)"><g id="cp_5_dashed-stroke-5_hu0l3h18qep6x-stroke" fill="none" stroke-linecap="round" stroke-linejoin="round" stroke-miterlimit="4" stroke="#484848" stroke-width="2" stroke-dasharray="5.0, 7.0"><g><path d="M 130 70C 130 103.14 103.14 130 70 130C 36.86 130 10 103.14 10 70C 10 36.86 36.86 10 70 10C 103.14 10 130 36.86 130 70Z"></path></g></g></g><g id="g-root-cp_5_left-5_4ik2q518qeqru-stroke" data-item-order="-943632" transform="translate(277.99200439453125, 157)"><g id="cp_5_left-5_4ik2q518qeqru-stroke" fill="none" stroke-linecap="round" stroke-linejoin="round" stroke-miterlimit="4" stroke="#ffffff" stroke-width="2"><g><path d="M 334.01 77L 334.01 78.4001C 334.01 107.4501 310.46 131 281.41 131L 62.6 131C 33.55 131 10 107.45 10 78.4L 10.01 78.4L 10.01 77M 10.01002 77L 10.01002 64M 334.01001 64L 334.01001 77M 10 64L 10 62.6C 10 33.55 33.5501 10 62.6 10L 281.41 10C 310.46 10 334.01 33.55 334.01 62.6L 334.01 64L 334 64"></path></g></g></g><g id="g-root-cp_4_fill-4_1q8u3f118qeozv-stroke" data-item-order="-943598" transform="translate(575, 341.010009765625)"></g><g id="g-root-cp_4_right-4_1lt0lal18qeps4-stroke" data-item-order="-943593" transform="translate(431, 305)"><g id="cp_4_right-4_1lt0lal18qeps4-stroke" fill="none" stroke-linecap="round" stroke-linejoin="round" stroke-miterlimit="4" stroke="#484848" stroke-width="2"><g><path d="M 286 92.01C 286 92.34 286 94.68 286 95.01C 285.46 140.94 248.06 178.01 202.01 178.01C 178.81 178.01 157.81 168.61 142.61 153.41L 112 184.01M 10 94.01L 118 94.01C 118 93.68 118 92.34 118 92.01M 285.99 92C 285.99 46.16 248.38 10 201.99 10C 155.6 10 118.53 46.63 118 92.01M 202 142.01C 228.51 142.01 250 120.52 250 94.01C 250 67.5 228.51 46.01 202 46.01C 175.49 46.01 154 67.5 154 94.01C 154 120.52 175.49 142.01 202 142.01Z"></path></g></g></g><g id="g-root-cp_4_dashed-stroke-4_1cxdl1p18qeqkt-stroke" data-item-order="-943589" transform="translate(563, 329.010009765625)"><g id="cp_4_dashed-stroke-4_1cxdl1p18qeqkt-stroke" fill="none" stroke-linecap="round" stroke-linejoin="round" stroke-miterlimit="4" stroke="#484848" stroke-width="2" stroke-dasharray="5.0, 7.0"><g><path d="M 130 70C 130 103.14 103.14 130 70 130C 36.86 130 10 103.14 10 70C 10 36.86 36.86 10 70 10C 103.14 10 130 36.86 130 70Z"></path></g></g></g><g id="g-root-cp_4_left-4_zmjjrh18qeozy-stroke" data-item-order="-943586" transform="translate(106.99200439453125, 328)"><g id="cp_4_left-4_zmjjrh18qeozy-stroke" fill="none" stroke-linecap="round" stroke-linejoin="round" stroke-miterlimit="4" stroke="#ffffff" stroke-width="2"><g><path d="M 334.01 77L 334.01 78.4001C 334.01 107.4501 310.46 131 281.41 131L 62.6 131C 33.55 131 10 107.45 10 78.4L 10.01 78.4L 10.01 77M 10.01002 77L 10.01002 64M 334.01001 64L 334.01001 77M 10 64L 10 62.6C 10 33.55 33.5501 10 62.6 10L 281.41 10C 310.46 10 334.01 33.55 334.01 62.6L 334.01 64L 334 64"></path></g></g></g><g id="g-root-cp_3_fill-3_mb31e518qeqkv-stroke" data-item-order="-943554" transform="translate(410, 507)"></g><g id="g-root-cp_3_dashed-stroke-3_dg2i8d18qeozk-stroke" data-item-order="-943549" transform="translate(398, 495)"><g id="cp_3_dashed-stroke-3_dg2i8d18qeozk-stroke" fill="none" stroke-linecap="round" stroke-linejoin="round" stroke-miterlimit="4" stroke="#484848" stroke-width="2" stroke-dasharray="5.0, 7.0"><g><path d="M 130 70C 130 36.86 103.14 10 70 10C 36.86 10 10 36.86 10 70C 10 102.5877 36.8595 129 69.999 129C 103.1384 129 129.9979 102.5877 129.9979 70"></path></g></g></g><g id="g-root-cp_3_stroke-3_4kfhzh18qeps9-stroke" data-item-order="-943545" transform="translate(374, 471)"><g id="cp_3_stroke-3_4kfhzh18qeps9-stroke" fill="none" stroke-linecap="round" stroke-linejoin="round" stroke-miterlimit="4" stroke="#484848" stroke-width="2"><g><path d="M 286 94L 178 94C 178 94.33 178 95.67 178 96M 10 96.01C 10 141.8444 47.6122 178 94.005 178C 140.3978 178 177.47 141.3745 178 96M 10 96C 10 95.67 10 93.33 10 93C 10.54 47.07 47.94 10 93.99 10C 117.19 10 138.19 19.4 153.39 34.6M 142 94C 142 67.49 120.51 46 94 46C 67.49 46 46 67.49 46 94C 46 120.0682 67.4894 141.2 93.999 141.2C 120.5085 141.2 141.9981 120.0682 141.9981 94"></path></g></g></g><g id="g-root-cp_3_right-3_4lzv118qeqki-stroke" data-item-order="-943542" transform="translate(649.99560546875, 495)"><g id="cp_3_right-3_4lzv118qeqki-stroke" fill="none" stroke-linecap="round" stroke-linejoin="round" stroke-miterlimit="4" stroke="#ffffff" stroke-width="2"><g><path d="M 10.004395 64L 10.004395 62.6C 10.004395 33.55 33.554395 10 62.604395 10L 281.414395 10C 310.464395 10 334.014395 33.55 334.014395 62.6L 334.004395 62.6L 334.004395 64M 334.004395 64L 334.004395 77M 10.004395 77L 10.004395 64M 334.004416 77L 334.004416 78.3767C 334.004416 106.9425 310.454816 130.1 281.405316 130.1L 62.599116 130.1C 33.549616 130.1 10.000016 106.9425 10.000016 78.3767L 10.000016 77L 10.010016 77"></path></g></g></g><g id="g-root-cp_2_fill-2_1lu9jgt18qeryb-stroke" data-item-order="-943512" transform="translate(242, 675)"></g><g id="g-root-cp_2_dashed-stroke-2_1cz90b118qepl8-stroke" data-item-order="-943507" transform="translate(230, 663)"><g id="cp_2_dashed-stroke-2_1cz90b118qepl8-stroke" fill="none" stroke-linecap="round" stroke-linejoin="round" stroke-miterlimit="4" stroke="#484848" stroke-width="2" stroke-dasharray="5.0, 7.0"><g><path d="M 130 70C 130 36.86 103.14 10 70 10C 36.86 10 10 36.86 10 70C 10 102.5877 36.8595 129 69.999 129C 103.1384 129 129.9979 102.5877 129.9979 70"></path></g></g></g><g id="g-root-cp_2_stroke-2_18jfi6l18qeqdh-stroke" data-item-order="-943503" transform="translate(206, 633)"><g id="cp_2_stroke-2_18jfi6l18qeqdh-stroke" fill="none" stroke-linecap="round" stroke-linejoin="round" stroke-miterlimit="4" stroke="#484848" stroke-width="2"><g><path d="M 10 102C 10 101.67 10 99.33 10 99C 10.54 53.07 47.94 16 93.99 16C 117.19 16 138.19 25.4 153.39 40.6L 184 10M 286 100L 178 100C 178 100.33 178 101.67 178 102M 10 102.01C 10 147.8444 47.6122 184 94.005 184C 140.3978 184 177.47 147.3745 178 102M 142 100C 142 73.49 120.51 52 94 52C 67.49 52 46 73.49 46 100C 46 126.0682 67.4894 147.2 93.999 147.2C 120.5085 147.2 141.9981 126.0682 141.9981 100"></path></g></g></g><g id="g-root-cp_2_right-2_znshxp18qer66-stroke" data-item-order="-943500" transform="translate(481.99560546875, 663)"><g id="cp_2_right-2_znshxp18qer66-stroke" fill="none" stroke-linecap="round" stroke-linejoin="round" stroke-miterlimit="4" stroke="#ffffff" stroke-width="2"><g><path d="M 10.004395 64L 10.004395 62.6C 10.004395 33.55 33.554395 10 62.604395 10L 281.414395 10C 310.464395 10 334.014395 33.55 334.014395 62.6L 334.004395 62.6L 334.004395 64M 334.004395 64L 334.004395 77M 10.004395 77L 10.004395 64M 334.004416 77L 334.004416 78.3767C 334.004416 106.9425 310.454816 130.1 281.405316 130.1L 62.599116 130.1C 33.549616 130.1 10.000016 106.9425 10.000016 78.3767L 10.000016 77L 10.010016 77"></path></g></g></g><g id="g-root-cp_1_fill-1_mcygnh18qeplb-stroke" data-item-order="-943468" transform="translate(74, 842)"></g><g id="g-root-cp_1_dashed-stroke-1_hx4yj118qeqdk-stroke" data-item-order="-943463" transform="translate(62, 830)"><g id="cp_1_dashed-stroke-1_hx4yj118qeqdk-stroke" fill="none" stroke-linecap="round" stroke-linejoin="round" stroke-miterlimit="4" stroke="#484848" stroke-width="2" stroke-dasharray="5.0, 7.0"><g><path d="M 130 70C 130 36.86 103.14 10 70 10C 36.86 10 10 36.86 10 70C 10 102.5877 36.8595 129 69.999 129C 103.1384 129 129.9979 102.5877 129.9979 70"></path></g></g></g><g id="g-root-cp_1_stroke-1_dhbgel18qer5t-stroke" data-item-order="-943459" transform="translate(38, 800)"><g id="cp_1_stroke-1_dhbgel18qer5t-stroke" fill="none" stroke-linecap="round" stroke-linejoin="round" stroke-miterlimit="4" stroke="#484848" stroke-width="2"><g><path d="M 10 102C 10 101.67 10 99.33 10 99C 10.54 53.07 47.94 16 93.99 16C 117.19 16 138.19 25.4 153.39 40.6L 184 10M 286 100L 178 100C 178 100.33 178 101.67 178 102M 10 102.01C 10 147.8444 47.6122 184 94.005 184C 140.3978 184 177.47 147.3745 178 102M 142 100C 142 73.49 120.51 52 94 52C 67.49 52 46 73.49 46 100C 46 126.0682 67.4894 147.2 93.999 147.2C 120.5085 147.2 141.9981 126.0682 141.9981 100"></path></g></g></g><g id="g-root-cp_1_right-1_4log5p18qeryi-stroke" data-item-order="-943456" transform="translate(313.99560546875, 830)"><g id="cp_1_right-1_4log5p18qeryi-stroke" fill="none" stroke-linecap="round" stroke-linejoin="round" stroke-miterlimit="4" stroke="#ffffff" stroke-width="2"><g><path d="M 10.004395 64L 10.004395 62.6C 10.004395 33.55 33.554395 10 62.604395 10L 281.414395 10C 310.464395 10 334.014395 33.55 334.014395 62.6L 334.004395 62.6L 334.004395 64M 334.004395 64L 334.004395 77M 10.004395 77L 10.004395 64M 334.004416 77L 334.004416 78.3767C 334.004416 106.9425 310.454816 130.1 281.405316 130.1L 62.599116 130.1C 33.549616 130.1 10.000016 106.9425 10.000016 78.3767L 10.000016 77L 10.010016 77"></path></g></g></g><g id="g-root-ic_woma_13z8urx18qixon-stroke" data-item-order="-3600" transform="translate(326, 860)"></g><g id="g-root-ic_8_1lxe02518qerda-stroke" data-item-order="-3600" transform="translate(359, 359)"></g><g id="g-root-ic_chec_1qdtw3x18qep6v-stroke" data-item-order="-3600" transform="translate(530, 188)"></g><g id="g-root-ic_1_94mi1918q94w4-stroke" data-item-order="-3600" transform="translate(494, 693)"></g><g id="g-root-ic_9_hwiklp18qlrez-stroke" data-item-order="-3600" transform="translate(662, 525)"></g><g id="g-root-tx_mermaid_142zm4t18qls76-stroke" data-item-order="0" transform="translate(734, 555)"></g><g id="g-root-tx_3_4jt42518qlqtq-stroke" data-item-order="0" transform="translate(446, 537)"></g><g id="g-root-tx__1ur5l1p18qerk9-stroke" data-item-order="0" transform="translate(215, 353)"></g><g id="g-root-tx__1heg4i518qlqm8-stroke" data-item-order="0" transform="translate(734, 519)"></g><g id="g-root-tx_markdown_1hhkl3h18q95op-stroke" data-item-order="0" transform="translate(566, 687)"></g><g id="g-root-tx_2_me7l5918q94au-stroke" data-item-order="0" transform="translate(278, 705)"></g><g id="g-root-tx_markdown_qva1fx18q95or-stroke" data-item-order="0" transform="translate(566, 723)"></g><g id="g-root-tx_mermaid_1qbygul18qeq6j-stroke" data-item-order="0" transform="translate(386, 38)"></g><g id="g-root-tx_mermaid_958z4d18qhkw4-stroke" data-item-order="0" transform="translate(398, 890)"></g><g id="g-root-tx__18laxfx18qepdw-stroke" data-item-order="0" transform="translate(434, 182)"></g><g id="g-root-tx_mermaid_1d0i1n118qeqrm-stroke" data-item-order="0" transform="translate(143, 389)"></g><g id="g-root-tx_1_zrjirx18qhkw2-stroke" data-item-order="0" transform="translate(110, 872)"></g><g id="g-root-tx_mermaid_me7etp18qerrh-stroke" data-item-order="0" transform="translate(338, 218)"></g><g id="g-root-tx_mermaid_mgphhp18qhjb7-stroke" data-item-order="0" transform="translate(398, 854)"></g><g id="g-root-tx_5_93ddjh18qeq6m-stroke" data-item-order="0" transform="translate(782, 200)"></g><g id="g-root-tx_4_me7hzh18qeqro-stroke" data-item-order="0" transform="translate(611, 371)"></g></g></g><path id="w1d0ieb11a48gsq" d="M65.283 12.757a.35.35 0 0 0 .584.157l5.203-5.141-6.183 3.523.396 1.461zm-2.216-11.7a.35.35 0 0 0-.522.305v3.111l3.276-1.868-2.754-1.548zm3.728 2.105l-4.25 2.421v2.445l6.391-3.644-2.141-1.222zm4.708 3.303a.35.35 0 0 0 0-.609l-1.592-.9-7.365 4.199v1.782a.35.35 0 0 0 .523.305l8.435-4.777z M44.542 2.513c0-.433.355-.783.792-.783s.792.35.792.783-.355.783-.792.783-.792-.35-.792-.783zm59.171 0c0-.433.355-.783.792-.783s.792.35.792.783-.355.783-.792.783-.792-.35-.792-.783zm-85.951 7.636h-1.27v-.487c-.276.201-.864.609-1.881.609-1.202 0-2.274-.794-2.137-2.078.118-1.106 1.153-1.584 1.848-1.727l2.17-.345c0-.539-.29-.956-1.064-1.006s-1.21.305-1.571 1.017l-1.124-.605c1.218-2.631 5.029-1.764 5.029.414v4.207zm-1.27-2.86c.006.396-.062 1.112-.819 1.59-.587.37-1.841.299-1.903-.395-.049-.555.461-.791.906-.898l1.816-.297zm72.662 2.86h-1.27v-.487c-.276.201-.864.609-1.881.609-1.202 0-2.274-.794-2.137-2.078.118-1.106 1.153-1.584 1.848-1.727l2.17-.345c0-.539-.29-.956-1.064-1.006s-1.21.305-1.571 1.017l-1.124-.605c1.218-2.631 5.029-1.764 5.029.414v4.207zm-1.27-2.86c.006.396-.062 1.112-.82 1.59-.587.37-1.841.299-1.903-.395-.049-.555.461-.791.906-.898l1.816-.297zM99.096 10.149H97.85v-8.45h1.246v4.895l2.68-2.559h1.738l-2.633 2.535 2.715 3.578h-1.556l-2.077-2.707-.867.844v1.863zm6.053-6.114h-1.255v6.113h1.255V4.035zm-59.2 0h-1.255v6.113h1.255V4.035zm5.584 6.113V1.697h1.255v2.695c.361-.346 1-.485 1.47-.485 1.452 0 2.477 1.082 2.457 2.448v3.792h-1.27v-3.68c0-.408-.214-1.339-1.315-1.339-.968 0-1.342.756-1.342 1.339v3.681h-1.255zm-4.76-4.894V4.039h.621a.45.45 0 0 0 .45-.45v-.855h1.251v1.305h1.309v1.215h-1.309v3.109c0 .293.105.664.648.664.365 0 .531-.035.736-.07v1.137s-.361.113-.857.113c-1.398 0-1.777-1.051-1.777-1.788V5.254h-1.071zM36.528 4.039h-1.394l2.191 6.106h1.125l1.234-3.918 1.238 3.918h1.129l2.188-6.106h-1.383l-1.359 3.93-1.256-3.93h-1.124l-1.242 3.957-1.348-3.957zM26.212 7.141c-.02 1.566 1.187 3.129 3.223 3.129 1.566 0 2.383-.918 2.734-1.719L31.172 8c-.315.399-.801 1.094-1.738 1.094-1.145 0-1.825-.781-1.891-1.52h4.625c.074-.284.148-.995-.03-1.559-.336-1.064-1.221-2.102-2.839-2.102s-3.088 1.152-3.088 3.227zm1.363-.75h3.348c-.055-.43-.566-1.301-1.623-1.301a1.79 1.79 0 0 0-1.725 1.301zm-8.758.75c.038 1.758 1.277 3.133 3.145 3.133 1.074 0 1.723-.477 1.961-.672v.547h1.242V1.703h-1.258v2.888c-.414-.36-1.062-.68-1.93-.68-1.91 0-3.198 1.473-3.16 3.23zm1.309-.08c0 1.119.723 1.978 1.836 1.978a1.88 1.88 0 0 0 1.94-1.904c0-1.371-1.011-1.99-1.972-1.99s-1.805.798-1.805 1.916zm76.683-.028C96.771 5.275 95.532 3.9 93.664 3.9c-1.074 0-1.723.477-1.961.672v-.547h-1.242v8.22h1.258V9.583c.414.36 1.063.68 1.93.68 1.91 0 3.198-1.473 3.16-3.23zm-1.309.08c0-1.119-.723-1.978-1.836-1.978a1.88 1.88 0 0 0-1.94 1.904c0 1.371 1.011 1.99 1.972 1.99S95.5 8.231 95.5 7.113zM106.441 10.173V4.036h1.254v.382c.361-.346 1-.485 1.47-.485 1.452 0 2.477 1.082 2.457 2.448v3.792h-1.27V6.492c0-.408-.214-1.339-1.315-1.339-.969 0-1.342.756-1.342 1.339v3.681h-1.254zm-30.383-.021V1.824h1.084l4.215 5.777V1.824h1.32v8.328h-1.094l-4.207-5.796v5.796h-1.319zM5.24 10.149H4V2.377h1.014l2.664 3.597 2.654-3.592h1.03v7.766h-1.256V4.762L7.678 8.068 5.24 4.742v5.407z" transform="translate(896, 1021)" fill="#80808088" stroke="none"></path></svg>